<?xml version="1.0" encoding="UTF-8" standalone="no"?><!DOCTYPE svg PUBLIC "-//W3C//DTD SVG 1.1//EN" "http://www.w3.org/Graphics/SVG/1.1/DTD/svg11.dtd"><svg width="100%" height="100%" viewBox="0 0 197 197" version="1.1" xmlns="http://www.w3.org/2000/svg" xmlns:xlink="http://www.w3.org/1999/xlink" xml:space="preserve" xmlns:serif="http://www.serif.com/" style="fill-rule:evenodd;clip-rule:evenodd;stroke-linejoin:round;stroke-miterlimit:1.41421;"><path d="M178.024,0.531l-51.983,0c-10.448,0 -18.948,8.501 -18.948,18.949l0,51.983c0,10.448 8.5,18.948 18.948,18.948l51.983,0c10.448,0 18.948,-8.5 18.948,-18.948l0,-51.983c0.001,-10.448 -8.499,-18.949 -18.948,-18.949Zm-5.408,52.44l-41.167,0c-4.142,0 -7.5,-3.357 -7.5,-7.5c0,-4.143 3.358,-7.5 7.5,-7.5l41.167,0c4.142,0 7.5,3.357 7.5,7.5c0,4.143 -3.358,7.5 -7.5,7.5Zm-101.684,-52.44l-51.984,0c-10.448,0 -18.948,8.501 -18.948,18.949l0,51.983c0,10.448 8.5,18.948 18.948,18.948l51.983,0c10.448,0 18.948,-8.5 18.948,-18.948l0,-51.983c0.001,-10.448 -8.499,-18.949 -18.947,-18.949Zm-5.147,52.44l-13.084,0l0,13.083c0,4.143 -3.358,7.5 -7.5,7.5c-4.142,0 -7.5,-3.357 -7.5,-7.5l0,-13.083l-13.083,0c-4.142,0 -7.5,-3.357 -7.5,-7.5c0,-4.143 3.358,-7.5 7.5,-7.5l13.083,0l0,-13.083c0,-4.143 3.358,-7.5 7.5,-7.5c4.142,0 7.5,3.357 7.5,7.5l0,13.083l13.083,0c4.142,0 7.5,3.357 7.5,7.5c0,4.143 -3.357,7.5 -7.499,7.5Zm5.147,53.591l-51.984,0c-10.448,0 -18.948,8.5 -18.948,18.948l0,51.983c0,10.448 8.5,18.948 18.948,18.948l51.983,0c10.448,0 18.948,-8.5 18.948,-18.948l0,-51.983c0.001,-10.448 -8.499,-18.948 -18.947,-18.948Zm-5.873,54.19c2.929,2.93 2.929,7.678 0,10.607c-1.464,1.464 -3.384,2.196 -5.303,2.196c-1.919,0 -3.839,-0.732 -5.303,-2.196l-9.251,-9.251l-9.251,9.251c-1.464,1.464 -3.384,2.196 -5.303,2.196c-1.919,0 -3.839,-0.732 -5.303,-2.196c-2.929,-2.93 -2.929,-7.678 0,-10.607l9.251,-9.251l-9.251,-9.251c-2.929,-2.93 -2.929,-7.678 0,-10.607c2.929,-2.928 7.678,-2.928 10.606,0l9.251,9.251l9.251,-9.251c2.929,-2.928 7.678,-2.928 10.606,0c2.929,2.93 2.929,7.678 0,10.607l-9.251,9.251l9.251,9.251Zm112.965,-54.19l-51.983,0c-10.448,0 -18.948,8.5 -18.948,18.948l0,51.983c0,10.448 8.5,18.948 18.948,18.948l51.983,0c10.448,0 18.948,-8.5 18.948,-18.948l0,-51.983c0.001,-10.448 -8.499,-18.948 -18.948,-18.948Zm-25.991,15.189l1.167,0c4.142,0 7.5,3.357 7.5,7.5c0,4.143 -3.358,7.5 -7.5,7.5l-1.167,0c-4.142,0 -7.5,-3.357 -7.5,-7.5c0,-4.143 3.358,-7.5 7.5,-7.5Zm1.166,59.5l-1.167,0c-4.142,0 -7.5,-3.357 -7.5,-7.5c0,-4.143 3.358,-7.5 7.5,-7.5l1.167,0c4.142,0 7.5,3.357 7.5,7.5c0,4.143 -3.358,7.5 -7.5,7.5Zm19.417,-22.25l-41.167,0c-4.142,0 -7.5,-3.357 -7.5,-7.5c0,-4.143 3.358,-7.5 7.5,-7.5l41.167,0c4.142,0 7.5,3.357 7.5,7.5c0,4.143 -3.358,7.5 -7.5,7.5Z" style="fill:#fff;fill-rule:nonzero;"/></svg>